<svg id="Capa_1" data-name="Capa 1" xmlns="http://www.w3.org/2000/svg" xmlns:xlink="http://www.w3.org/1999/xlink" viewBox="0 0 986.53 273.46"><defs><style>.cls-1{fill:url(#Degradado_sin_nombre_36);}.cls-2,.cls-4{fill:#fff;}.cls-3{fill:#bababa;}.cls-3,.cls-4{stroke:#000;}</style><linearGradient id="Degradado_sin_nombre_36" x1="34.13" y1="30.97" x2="194.07" y2="195.83" gradientUnits="userSpaceOnUse"><stop offset="0" stop-color="#00a6ba"/><stop offset="0.25" stop-color="#009dbb"/><stop offset="0.5" stop-color="#0095bb"/><stop offset="1" stop-color="#0085bb"/></linearGradient></defs><title>Logo Ezequiel Jerez</title><circle class="cls-1" cx="136.73" cy="136.73" r="136.73"/><path class="cls-2" d="M294.69,257.68l.21-.11c-.21.17-.42.34-.64.49Z" transform="translate(-6.73 -113.27)"/><path class="cls-2" d="M294.69,230.28l-.44-.38c.23.16.45.33.66.5Z" transform="translate(-6.73 -113.27)"/><path class="cls-3" d="M150.71,202.26a7.6,7.6,0,0,1-.17,5.17,5.89,5.89,0,0,1-4,3.52l-1.09.35a3.53,3.53,0,0,1-1.32.12l-43.55.09a8.58,8.58,0,0,1-5-1.42A6.89,6.89,0,0,1,93,206.52a7.62,7.62,0,0,1,.33-5.37,6.49,6.49,0,0,1,4.3-3.77,6.89,6.89,0,0,1,2.46-.32l43.77.14a6.56,6.56,0,0,1,4.54,1.5A7.91,7.91,0,0,1,150.71,202.26Z" transform="translate(-6.73 -113.27)"/><path class="cls-3" d="M135.95,247.95a7.6,7.6,0,0,1-.17,5.17,5.89,5.89,0,0,1-4,3.52l-1.09.35a3.53,3.53,0,0,1-1.32.12l-43.55.09a8.58,8.58,0,0,1-5-1.42,6.89,6.89,0,0,1-2.55-3.56,7.62,7.62,0,0,1,.33-5.37,6.49,6.49,0,0,1,4.3-3.77,6.89,6.89,0,0,1,2.46-.32l43.77.14a6.56,6.56,0,0,1,4.54,1.5A7.91,7.91,0,0,1,135.95,247.95Z" transform="translate(-6.73 -113.27)"/><path class="cls-3" d="M121.22,293.64a7.6,7.6,0,0,1-.17,5.17,5.89,5.89,0,0,1-4,3.52l-1.09.35a3.53,3.53,0,0,1-1.32.12l-43.55.09a8.58,8.58,0,0,1-5-1.42,6.89,6.89,0,0,1-2.55-3.56,7.62,7.62,0,0,1,.33-5.37,6.49,6.49,0,0,1,4.3-3.77,6.89,6.89,0,0,1,2.46-.32l43.77.14a6.56,6.56,0,0,1,4.54,1.5A7.91,7.91,0,0,1,121.22,293.64Z" transform="translate(-6.73 -113.27)"/><path class="cls-4" d="M99.6,197.06a7.6,7.6,0,0,1,4.88,1.72,5.89,5.89,0,0,1,2.15,4.88v1.15a3.53,3.53,0,0,1-.29,1.29L77.5,297.21a8.58,8.58,0,0,1-2.87,4.38A6.89,6.89,0,0,1,70.47,303a7.62,7.62,0,0,1-5-1.94,6.49,6.49,0,0,1-2.3-5.24,6.89,6.89,0,0,1,.43-2.44l29.13-91.26a6.56,6.56,0,0,1,2.8-3.87A7.91,7.91,0,0,1,99.6,197.06Z" transform="translate(-6.73 -113.27)"/><path class="cls-3" d="M193.92,293.64a7.6,7.6,0,0,1-.17,5.17,5.89,5.89,0,0,1-4,3.52l-1.09.35a3.53,3.53,0,0,1-1.32.12l-43.55.09a8.58,8.58,0,0,1-5-1.42,6.89,6.89,0,0,1-2.55-3.56,7.62,7.62,0,0,1,.33-5.37,6.49,6.49,0,0,1,4.3-3.77,6.89,6.89,0,0,1,2.46-.32l43.77.14a6.56,6.56,0,0,1,4.54,1.5A7.91,7.91,0,0,1,193.92,293.64Z" transform="translate(-6.73 -113.27)"/><path class="cls-4" d="M216.74,197.06a7.6,7.6,0,0,1,4.88,1.72,5.89,5.89,0,0,1,2.15,4.88v1.15a3.53,3.53,0,0,1-.29,1.29l-28.84,91.11a8.58,8.58,0,0,1-2.87,4.38,6.89,6.89,0,0,1-4.16,1.36,7.62,7.62,0,0,1-5-1.94,6.49,6.49,0,0,1-2.3-5.24,6.89,6.89,0,0,1,.43-2.44l29.13-91.26a6.56,6.56,0,0,1,2.8-3.87A7.91,7.91,0,0,1,216.74,197.06Z" transform="translate(-6.73 -113.27)"/><path class="cls-4" d="M21,250a4.45,4.45,0,0,0,1.58,3.4l.08.06h0l.09.06.15.13,22.59,19.67a2.82,2.82,0,0,0,1.37.65h0a3,3,0,0,0,2.52-.62,3.46,3.46,0,0,0,1.26-2.1,3.14,3.14,0,0,0-.29-2,3.85,3.85,0,0,0-1.68-1.59l-.11-.08L30.43,250.38a.52.52,0,0,1,0-.75l14.7-13.95c1.45-1.38,3-2.68,4.48-4a3.11,3.11,0,0,0,1.06-2.94,3.46,3.46,0,0,0-1.26-2.09A2.94,2.94,0,0,0,46.9,226h0a2.89,2.89,0,0,0-1.39.68L22.95,246.34l-.16.14-.09.06h0l-.09.06A4.45,4.45,0,0,0,21,250Z" transform="translate(-6.73 -113.27)"/><path class="cls-4" d="M265.89,250a4.45,4.45,0,0,1-1.58,3.4l-.08.06h0l-.09.06-.15.13L241.4,273.33A2.82,2.82,0,0,1,240,274h0a3,3,0,0,1-2.52-.62,3.46,3.46,0,0,1-1.26-2.1,3.14,3.14,0,0,1,.29-2,3.85,3.85,0,0,1,1.68-1.59l.11-.08,18.18-17.25a.52.52,0,0,0,0-.75l-14.7-13.95c-1.45-1.38-3-2.68-4.48-4a3.11,3.11,0,0,1-1.06-2.94,3.46,3.46,0,0,1,1.26-2.09A2.94,2.94,0,0,1,240,226h0a2.89,2.89,0,0,1,1.39.68L264,246.34l.16.14.09.06h0l.09.06A4.45,4.45,0,0,1,265.89,250Z" transform="translate(-6.73 -113.27)"/><path class="cls-2" d="M53.93,257.68l-.21-.11c.21.17.42.34.64.49Z" transform="translate(-6.73 -113.27)"/><path class="cls-2" d="M53.93,242.32l.44-.38c-.23.16-.45.33-.66.5Z" transform="translate(-6.73 -113.27)"/><path class="cls-2" d="M341.41,186.06a6.1,6.1,0,0,1,4.51,1.72,6.24,6.24,0,0,1,1.72,4.62,6.43,6.43,0,0,1-1.72,4.67,6,6,0,0,1-4.51,1.78H316v18.69h24.37a6.32,6.32,0,0,1,4.67,1.78,6.18,6.18,0,0,1,1.78,4.56,6.1,6.1,0,0,1-1.78,4.67,6.56,6.56,0,0,1-4.67,1.67H316V266.3h25.81a5.94,5.94,0,0,1,6.34,6.34,6.39,6.39,0,0,1-1.72,4.73,6.24,6.24,0,0,1-4.62,1.72H309.59a6.33,6.33,0,0,1-4.51-1.72,6.17,6.17,0,0,1-1.84-4.73V192.4a6,6,0,0,1,1.84-4.62,6.34,6.34,0,0,1,4.51-1.72Z" transform="translate(-6.73 -113.27)"/><path class="cls-2" d="M384.69,217.57a6.81,6.81,0,0,1,5.12,1.95,6.68,6.68,0,0,1,1.89,4.84,7,7,0,0,1-.39,2.34,13.72,13.72,0,0,1-.95,2.11L369.11,266.3h16.13a6.44,6.44,0,0,1,4.67,1.72,6.14,6.14,0,0,1,1.78,4.62,6.28,6.28,0,0,1-1.78,4.73,6.43,6.43,0,0,1-4.67,1.72H358.88a7.08,7.08,0,0,1-5.23-1.78,6.17,6.17,0,0,1-1.78-4.56,8.65,8.65,0,0,1,1.45-4.56l21.36-37.72H359.32a6.27,6.27,0,0,1-4.73-1.78,7.12,7.12,0,0,1,0-9.29,6.17,6.17,0,0,1,4.73-1.84Z" transform="translate(-6.73 -113.27)"/><path class="cls-2" d="M426.3,215.57a31.64,31.64,0,0,1,12.63,2.56,34.55,34.55,0,0,1,10.4,6.84,32.51,32.51,0,0,1,7.06,10A28.77,28.77,0,0,1,459,247.05a6.63,6.63,0,0,1-1.67,4.9,6.32,6.32,0,0,1-4.67,1.67H407.5a15.1,15.1,0,0,0,2.34,5.79,18.5,18.5,0,0,0,4.39,4.62,21.75,21.75,0,0,0,5.73,3.06,18.7,18.7,0,0,0,6.34,1.11,19.37,19.37,0,0,0,7.57-1.45,18.93,18.93,0,0,0,6.12-4.12,9.65,9.65,0,0,1,2.45-1.61,6.15,6.15,0,0,1,2.56-.61,5.57,5.57,0,0,1,4.28,1.89,6.4,6.4,0,0,1,1.72,4.45,9.68,9.68,0,0,1-.33,2.56,5,5,0,0,1-1.34,2.23,27.18,27.18,0,0,1-10.24,7.12A34.43,34.43,0,0,1,426.3,281a31.91,31.91,0,0,1-12.74-2.56,33.4,33.4,0,0,1-10.4-7,32.28,32.28,0,0,1-7-10.35,33,33,0,0,1,0-25.48,33,33,0,0,1,7-10.4,33.77,33.77,0,0,1,10.4-7.06A31.34,31.34,0,0,1,426.3,215.57Zm0,12.79a18.75,18.75,0,0,0-6.34,1.11,19.34,19.34,0,0,0-5.62,3.12,20.51,20.51,0,0,0-4.28,4.67,16.62,16.62,0,0,0-2.45,5.79H445a15.16,15.16,0,0,0-2.34-5.79,20.14,20.14,0,0,0-10-7.79A18.76,18.76,0,0,0,426.3,228.36Z" transform="translate(-6.73 -113.27)"/><path class="cls-2" d="M517.08,273.09a21.73,21.73,0,0,1-7.79,5.73A26.71,26.71,0,0,1,498.17,281a30.83,30.83,0,0,1-12.29-2.56A34.28,34.28,0,0,1,468.08,261a31.13,31.13,0,0,1,0-25.48,34.28,34.28,0,0,1,17.8-17.41,30.83,30.83,0,0,1,12.29-2.56,23.59,23.59,0,0,1,5.84.72,27.81,27.81,0,0,1,5.34,1.95A30.06,30.06,0,0,1,514,221a21.89,21.89,0,0,1,3.56,3.23,13.89,13.89,0,0,1,2.17-5.4q1.39-1.84,4.84-1.84a5.44,5.44,0,0,1,3.84,1.5,5.28,5.28,0,0,1,1.61,4.06v78.66a6,6,0,0,1-1.84,4.62,6.48,6.48,0,0,1-4.62,1.72,6.39,6.39,0,0,1-4.73-1.72,6.24,6.24,0,0,1-1.72-4.62Zm-18.91-4.9a17.88,17.88,0,0,0,7.45-1.56,18.73,18.73,0,0,0,6-4.28,20.05,20.05,0,0,0,4-6.34,21.39,21.39,0,0,0,0-15.46,20.09,20.09,0,0,0-4-6.34,18.78,18.78,0,0,0-6-4.28,17.91,17.91,0,0,0-7.45-1.56A19.53,19.53,0,0,0,484,234.2a20.66,20.66,0,0,0-4.23,6.34,20,20,0,0,0,0,15.46,20.62,20.62,0,0,0,4.23,6.34,19.53,19.53,0,0,0,14.13,5.84Z" transform="translate(-6.73 -113.27)"/><path class="cls-2" d="M588,279.65q-5.45,0-6.45-5.56a15.62,15.62,0,0,1-6,5.12,20,20,0,0,1-9,1.89,27.71,27.71,0,0,1-10.79-2,23.28,23.28,0,0,1-8.12-5.56,24.18,24.18,0,0,1-5.12-8.57,32.66,32.66,0,0,1-1.78-11v-30.6a6.2,6.2,0,0,1,1.72-4.67,7.14,7.14,0,0,1,9.18,0,6.1,6.1,0,0,1,1.78,4.67v30.6q0,6.57,3.5,10.51t10.29,3.95q6.79,0,10.12-3.89t3.34-10.57v-30.6a6.2,6.2,0,0,1,1.72-4.67,7.22,7.22,0,0,1,9.23,0,6,6,0,0,1,1.84,4.67v50.73a5.28,5.28,0,0,1-1.61,4.06A5.44,5.44,0,0,1,588,279.65Z" transform="translate(-6.73 -113.27)"/><path class="cls-2" d="M617,273.2a6.54,6.54,0,0,1-11,4.73,6.17,6.17,0,0,1-1.84-4.73V225.58A6.08,6.08,0,0,1,606,221a6.35,6.35,0,0,1,11,4.56Z" transform="translate(-6.73 -113.27)"/><path class="cls-2" d="M658.49,215.57a31.64,31.64,0,0,1,12.63,2.56,34.55,34.55,0,0,1,10.4,6.84,32.51,32.51,0,0,1,7.06,10,28.77,28.77,0,0,1,2.61,12.07,6.63,6.63,0,0,1-1.67,4.9,6.32,6.32,0,0,1-4.67,1.67H639.69A15.1,15.1,0,0,0,642,259.4a18.5,18.5,0,0,0,4.39,4.62,21.75,21.75,0,0,0,5.73,3.06,18.7,18.7,0,0,0,6.34,1.11,19.37,19.37,0,0,0,7.57-1.45,18.93,18.93,0,0,0,6.12-4.12,9.65,9.65,0,0,1,2.45-1.61,6.15,6.15,0,0,1,2.56-.61,5.57,5.57,0,0,1,4.28,1.89,6.4,6.4,0,0,1,1.72,4.45,9.68,9.68,0,0,1-.33,2.56,5,5,0,0,1-1.34,2.23,27.18,27.18,0,0,1-10.24,7.12A34.43,34.43,0,0,1,658.49,281a31.91,31.91,0,0,1-12.74-2.56,33.4,33.4,0,0,1-10.4-7,32.28,32.28,0,0,1-7-10.35,33,33,0,0,1,0-25.48,33,33,0,0,1,7-10.4,33.77,33.77,0,0,1,10.4-7.06A31.34,31.34,0,0,1,658.49,215.57Zm0,12.79a18.75,18.75,0,0,0-6.34,1.11,19.34,19.34,0,0,0-5.62,3.12,20.51,20.51,0,0,0-4.28,4.67A16.62,16.62,0,0,0,639.8,243h37.38a15.16,15.16,0,0,0-2.34-5.79,20.14,20.14,0,0,0-10-7.79A18.76,18.76,0,0,0,658.49,228.36Z" transform="translate(-6.73 -113.27)"/><path class="cls-2" d="M712.56,273.2a6.54,6.54,0,0,1-11,4.73,6.17,6.17,0,0,1-1.84-4.73V207.67a6,6,0,0,1,1.84-4.62,7,7,0,0,1,9.23,0,6.24,6.24,0,0,1,1.72,4.62Z" transform="translate(-6.73 -113.27)"/><path class="cls-2" d="M770.42,260.07a22.65,22.65,0,0,1-1.39,8.18,17.89,17.89,0,0,1-3.89,6.17,16.49,16.49,0,0,1-6,3.89,21.24,21.24,0,0,1-7.62,1.34q-3.78,0-5.56-1.72a6.27,6.27,0,0,1-1.78-4.73,6.13,6.13,0,0,1,1.78-4.62,6.43,6.43,0,0,1,4.67-1.72,7.13,7.13,0,0,0,5-1.84,6.52,6.52,0,0,0,2-5.06V192.4a6.13,6.13,0,0,1,1.78-4.62,6.28,6.28,0,0,1,4.56-1.72,6.44,6.44,0,0,1,4.67,1.72,6.14,6.14,0,0,1,1.78,4.62Z" transform="translate(-6.73 -113.27)"/><path class="cls-2" d="M811.69,215.57a31.64,31.64,0,0,1,12.63,2.56,34.55,34.55,0,0,1,10.4,6.84,32.51,32.51,0,0,1,7.07,10,28.77,28.77,0,0,1,2.61,12.07,6.63,6.63,0,0,1-1.67,4.9,6.32,6.32,0,0,1-4.67,1.67H792.89a15.1,15.1,0,0,0,2.34,5.79,18.51,18.51,0,0,0,4.39,4.62,21.75,21.75,0,0,0,5.73,3.06,18.7,18.7,0,0,0,6.34,1.11,19.37,19.37,0,0,0,7.57-1.45,18.93,18.93,0,0,0,6.12-4.12,9.65,9.65,0,0,1,2.45-1.61,6.15,6.15,0,0,1,2.56-.61,5.57,5.57,0,0,1,4.28,1.89,6.4,6.4,0,0,1,1.72,4.45,9.68,9.68,0,0,1-.33,2.56,5,5,0,0,1-1.34,2.23,27.17,27.17,0,0,1-10.24,7.12A34.43,34.43,0,0,1,811.69,281,31.91,31.91,0,0,1,799,278.43a33.4,33.4,0,0,1-10.4-7,32.28,32.28,0,0,1-7-10.35,33,33,0,0,1,0-25.48,33,33,0,0,1,7-10.4,33.77,33.77,0,0,1,10.4-7.06A31.34,31.34,0,0,1,811.69,215.57Zm0,12.79a18.75,18.75,0,0,0-6.34,1.11,19.34,19.34,0,0,0-5.62,3.12,20.51,20.51,0,0,0-4.28,4.67A16.62,16.62,0,0,0,793,243h37.38a15.16,15.16,0,0,0-2.34-5.79,20.14,20.14,0,0,0-10-7.79A18.76,18.76,0,0,0,811.69,228.36Z" transform="translate(-6.73 -113.27)"/><path class="cls-2" d="M859.31,217a4.88,4.88,0,0,1,4.12,1.72,8.64,8.64,0,0,1,1.56,4.73,19.58,19.58,0,0,1,7-5.12,23,23,0,0,1,8.79-1.56,7.05,7.05,0,0,1,4.62,1.5q1.84,1.5,1.84,4.84a6.5,6.5,0,0,1-1.34,4.28,5.79,5.79,0,0,1-4.23,1.84,30.13,30.13,0,0,0-7.9,1.45,11.92,11.92,0,0,0-4.9,3.06,10.49,10.49,0,0,0-2.45,4.67,25.52,25.52,0,0,0-.67,6.06v29.26a5.68,5.68,0,0,1-1.72,4.17,6.24,6.24,0,0,1-4.62,1.72,6.42,6.42,0,0,1-4.67-1.72,5.72,5.72,0,0,1-1.78-4.28V224a8.63,8.63,0,0,1,1.39-5Q855.75,217,859.31,217Z" transform="translate(-6.73 -113.27)"/><path class="cls-2" d="M919.06,215.57a31.64,31.64,0,0,1,12.63,2.56,34.55,34.55,0,0,1,10.4,6.84,32.51,32.51,0,0,1,7.07,10,28.77,28.77,0,0,1,2.61,12.07,6.63,6.63,0,0,1-1.67,4.9,6.32,6.32,0,0,1-4.67,1.67H900.25a15.1,15.1,0,0,0,2.34,5.79A18.51,18.51,0,0,0,907,264a21.75,21.75,0,0,0,5.73,3.06,18.7,18.7,0,0,0,6.34,1.11,19.37,19.37,0,0,0,7.57-1.45,18.93,18.93,0,0,0,6.12-4.12,9.65,9.65,0,0,1,2.45-1.61,6.15,6.15,0,0,1,2.56-.61,5.57,5.57,0,0,1,4.28,1.89,6.4,6.4,0,0,1,1.72,4.45,9.68,9.68,0,0,1-.33,2.56,5,5,0,0,1-1.34,2.23,27.17,27.17,0,0,1-10.24,7.12A34.43,34.43,0,0,1,919.06,281a31.91,31.91,0,0,1-12.74-2.56,33.4,33.4,0,0,1-10.4-7,32.28,32.28,0,0,1-7-10.35,33,33,0,0,1,0-25.48,33,33,0,0,1,7-10.4,33.77,33.77,0,0,1,10.4-7.06A31.34,31.34,0,0,1,919.06,215.57Zm0,12.79a18.75,18.75,0,0,0-6.34,1.11,19.34,19.34,0,0,0-5.62,3.12,20.51,20.51,0,0,0-4.28,4.67,16.62,16.62,0,0,0-2.45,5.79h37.38a15.16,15.16,0,0,0-2.34-5.79,20.14,20.14,0,0,0-10-7.79A18.76,18.76,0,0,0,919.06,228.36Z" transform="translate(-6.73 -113.27)"/><path class="cls-2" d="M986.26,217.57a6.81,6.81,0,0,1,5.12,1.95,6.68,6.68,0,0,1,1.89,4.84,7,7,0,0,1-.39,2.34,13.72,13.72,0,0,1-.95,2.11L970.68,266.3h16.13a6.44,6.44,0,0,1,4.67,1.72,6.14,6.14,0,0,1,1.78,4.62,6.28,6.28,0,0,1-1.78,4.73,6.43,6.43,0,0,1-4.67,1.72H960.44a7.08,7.08,0,0,1-5.23-1.78,6.17,6.17,0,0,1-1.78-4.56,8.65,8.65,0,0,1,1.45-4.56l21.36-37.72H960.89a6.27,6.27,0,0,1-4.73-1.78,7.12,7.12,0,0,1,0-9.29,6.17,6.17,0,0,1,4.73-1.84Z" transform="translate(-6.73 -113.27)"/><circle class="cls-2" cx="603.86" cy="94.41" r="6.36"/></svg>